<?xml version="1.0" encoding="UTF-8" standalone="yes"?>
<!DOCTYPE svg PUBLIC "-//W3C//DTD SVG 1.1//EN" "http://www.w3.org/Graphics/SVG/1.1/DTD/svg11.dtd">

<svg width="600" height="300" viewBox="0 0 600 300" xmlns="http://www.w3.org/2000/svg" xmlns:xlink="http://www.w3.org/1999/xlink" version="1.1" baseProfile="full">
    <defs>
        <linearGradient id="53018592" x1="0%" x2="0%" y1="0%" y2="100%">
            <stop offset="0%" style="stop-color:#020081;stop-opacity:1.000000"></stop>
            <stop offset="98%" style="stop-color:#0200ff;stop-opacity:1.000000"></stop>
        </linearGradient>
        <linearGradient id="22778096" x1="0%" x2="0%" y1="0%" y2="100%">
            <stop offset="0%" style="stop-color:#020081;stop-opacity:1.000000"></stop>
            <stop offset="98%" style="stop-color:#0200ff;stop-opacity:1.000000"></stop>
        </linearGradient>
    </defs>
    <g transform="scale(1,-1) translate(0,-300)">
        <path d="M 404.236159 1371.660605 L 404.236159 1343.660606 L 225.036166 1343.660606 L 225.036166 881.660623 L 196.336167 881.660623 L 196.336167 1343.660606 L 17.136174 1343.660606 L 17.136174 1371.660605 Z M 476.336156 1406.660603 L 505.736155 1406.660603 L 505.736155 1107.760615 L 503.636155 1076.260616 Q 517.636154 1109.860615 548.086153 1129.110614 Q 578.536152 1148.360613 618.436151 1149.760613 Q 656.936149 1149.760613 679.336148 1128.060614 Q 701.736147 1106.360615 703.136147 1071.360616 L 703.136147 881.660623 L 673.736149 881.660623 L 673.736149 1063.660616 Q 672.336149 1086.060616 657.286149 1102.860615 Q 642.236150 1119.660614 612.836151 1121.060614 Q 591.836152 1121.060614 572.236152 1113.710614 Q 552.636153 1106.360615 537.936154 1093.760615 Q 523.236154 1081.160616 514.486155 1063.660616 Q 505.736155 1046.160617 505.736155 1025.160618 L 505.736155 881.660623 L 476.336156 881.660623 Z M 916.636139 1121.760614 Q 895.636140 1121.760614 876.736141 1114.410614 Q 857.836141 1107.060615 843.836142 1093.760615 Q 829.836143 1080.460616 821.086143 1062.960616 Q 812.336143 1045.460617 810.236143 1025.160618 Q 809.536143 1016.760618 809.886143 1008.710618 Q 810.236143 1000.660619 811.636143 992.960619 Q 858.536141 1011.860618 905.436140 1030.410618 Q 952.336138 1048.960617 999.936136 1067.860616 Q 988.036137 1091.660615 965.636137 1106.710615 Q 943.236138 1121.760614 916.636139 1121.760614 Z M 1037.036135 1051.760617 Q 982.436137 1030.060618 928.536139 1008.710618 Q 874.636141 987.360619 820.036143 965.660620 Q 831.936142 939.060621 857.836141 922.260622 Q 883.736140 905.460622 916.636139 905.460622 Q 938.336138 905.460622 957.236138 913.160622 Q 976.136137 920.860622 990.136136 934.860621 Q 995.036136 929.260622 999.236136 924.010622 Q 1003.436136 918.760622 1008.336136 913.160622 Q 990.136136 896.360623 967.036137 886.560623 Q 943.936138 876.760624 916.636139 876.760624 Q 887.936140 876.760624 863.086141 887.610623 Q 838.236142 898.460623 819.686143 916.660622 Q 801.136144 934.860621 790.286144 959.710620 Q 779.436144 984.560619 779.436144 1013.260618 Q 779.436144 1041.260617 790.286144 1066.460616 Q 801.136144 1091.660615 819.686143 1109.860615 Q 838.236142 1128.060614 863.086141 1138.910614 Q 887.936140 1149.760613 916.636139 1149.760613 Q 937.636138 1149.760613 956.536138 1142.410613 Q 975.436137 1135.060614 991.186136 1122.110614 Q 1006.936136 1109.160615 1018.836135 1091.310615 Q 1030.736135 1073.460616 1037.036135 1051.760617 Z M 1722.336109 1371.660605 L 1751.736107 1371.660605 Q 1697.136109 1242.860610 1643.236112 1115.460614 Q 1589.336114 988.060619 1534.736116 859.260624 Q 1480.136118 988.060619 1426.236120 1115.460614 Q 1372.336122 1242.860610 1317.736124 1371.660605 L 1347.136123 1371.660605 Q 1392.636121 1263.860609 1437.786119 1157.810613 Q 1482.936118 1051.760617 1528.436116 943.960621 Q 1529.836116 939.060621 1531.586116 934.160621 Q 1533.336116 929.260622 1534.736116 924.360622 Q 1536.136116 929.260622 1537.886116 934.160621 Q 1539.636115 939.060621 1541.036115 943.960621 Q 1586.536114 1051.760617 1631.686112 1157.810613 Q 1676.836110 1263.860609 1722.336109 1371.660605 Z M 1849.036104 1013.260618 Q 1849.036104 990.860619 1857.436103 971.260620 Q 1865.836103 951.660621 1880.186102 936.960621 Q 1894.536102 922.260622 1914.486101 913.860622 Q 1934.436100 905.460622 1957.536100 905.460622 Q 1980.636099 905.460622 2000.236098 913.860622 Q 2019.836097 922.260622 2034.536097 936.960621 Q 2049.236096 951.660621 2057.636096 971.260620 Q 2066.036095 990.860619 2066.036095 1013.260618 Q 2066.036095 1035.660617 2057.636096 1055.610617 Q 2049.236096 1075.560616 2034.536097 1090.260615 Q 2019.836097 1104.960615 2000.236098 1113.360614 Q 1980.636099 1121.760614 1957.536100 1121.760614 Q 1934.436100 1121.760614 1914.486101 1113.360614 Q 1894.536102 1104.960615 1880.186102 1090.260615 Q 1865.836103 1075.560616 1857.436103 1055.610617 Q 1849.036104 1035.660617 1849.036104 1013.260618 Z M 1819.636105 1013.260618 Q 1819.636105 1041.260617 1830.486104 1066.110616 Q 1841.336104 1090.960615 1859.886103 1109.510615 Q 1878.436103 1128.060614 1903.636102 1138.910614 Q 1928.836101 1149.760613 1957.536100 1149.760613 Q 1977.836099 1149.760613 1996.036098 1143.810613 Q 2014.236097 1137.860614 2028.936097 1128.410614 Q 2043.636096 1118.960614 2053.786096 1106.710615 Q 2063.936095 1094.460615 2068.836095 1082.560616 Q 2068.836095 1097.960615 2069.886095 1113.360614 Q 2070.936095 1128.760614 2071.636095 1144.160613 L 2095.436094 1144.160613 L 2095.436094 881.660623 L 2068.836095 881.660623 L 2068.836095 913.160622 Q 2068.836095 920.860622 2069.186095 927.860622 Q 2069.536095 934.860621 2069.536095 942.560621 Q 2065.336095 930.660621 2055.186096 918.760622 Q 2045.036096 906.860622 2030.686097 897.410623 Q 2016.336097 887.960623 1997.786098 882.360623 Q 1979.236099 876.760624 1957.536100 876.760624 Q 1928.836101 876.760624 1903.636102 887.610623 Q 1878.436103 898.460623 1859.886103 916.660622 Q 1841.336104 934.860621 1830.486104 959.710620 Q 1819.636105 984.560619 1819.636105 1013.260618 Z M 2344.636085 1121.060614 Q 2322.236086 1120.360614 2302.986086 1113.010614 Q 2283.736087 1105.660615 2269.736088 1093.060615 Q 2255.736088 1080.460616 2247.336088 1062.960616 Q 2238.936089 1045.460617 2238.936089 1025.160618 L 2238.936089 881.660623 L 2209.536090 881.660623 L 2209.536090 1144.160613 L 2236.136089 1144.160613 L 2236.136089 1119.660614 Q 2236.136089 1107.760615 2236.136089 1097.960615 Q 2236.136089 1088.160615 2236.836089 1076.260616 Q 2252.236088 1110.560615 2283.386087 1129.810614 Q 2314.536086 1149.060613 2346.736085 1149.760613 Z M 2413.236082 1237.260610 Q 2413.236082 1247.060609 2420.236082 1253.710609 Q 2427.236082 1260.360609 2436.336081 1260.360609 Q 2445.436081 1260.360609 2452.436081 1253.710609 Q 2459.436080 1247.060609 2459.436080 1237.260610 Q 2459.436080 1227.460610 2452.436081 1220.810610 Q 2445.436081 1214.160611 2436.336081 1214.160611 Q 2427.236082 1214.160611 2420.236082 1220.810610 Q 2413.236082 1227.460610 2413.236082 1237.260610 Z M 2450.336081 881.660623 L 2421.636082 881.660623 L 2421.636082 1144.160613 L 2450.336081 1144.160613 Z M 2731.036070 928.560622 Q 2735.936070 922.960622 2740.486070 917.710622 Q 2745.036069 912.460622 2749.236069 906.860622 Q 2731.036070 892.860623 2709.336071 884.810623 Q 2687.636072 876.760624 2662.436073 876.760624 Q 2633.736074 876.760624 2608.886075 887.610623 Q 2584.036076 898.460623 2565.486076 916.660622 Q 2546.936077 934.860621 2536.086077 959.710620 Q 2525.236078 984.560619 2525.236078 1013.260618 Q 2525.236078 1041.260617 2536.086077 1066.460616 Q 2546.936077 1091.660615 2565.486076 1109.860615 Q 2584.036076 1128.060614 2608.886075 1138.910614 Q 2633.736074 1149.760613 2662.436073 1149.760613 Q 2687.636072 1149.760613 2710.036071 1141.710613 Q 2732.436070 1133.660614 2749.936069 1119.660614 Q 2745.036069 1114.060614 2740.486070 1108.810615 Q 2735.936070 1103.560615 2731.036070 1097.960615 Q 2717.036071 1109.160615 2699.886071 1115.460614 Q 2682.736072 1121.760614 2662.436073 1121.760614 Q 2639.336074 1121.760614 2619.736074 1113.360614 Q 2600.136075 1104.960615 2585.786076 1090.260615 Q 2571.436076 1075.560616 2563.036076 1055.610617 Q 2554.636077 1035.660617 2554.636077 1013.260618 Q 2554.636077 990.860619 2563.036076 971.260620 Q 2571.436076 951.660621 2585.786076 936.960621 Q 2600.136075 922.260622 2619.736074 913.860622 Q 2639.336074 905.460622 2662.436073 905.460622 Q 2702.336071 905.460622 2731.036070 928.560622 Z M 2796.836068 1013.260618 Q 2796.836068 1041.260617 2807.686067 1066.460616 Q 2818.536067 1091.660615 2837.086066 1110.210615 Q 2855.636065 1128.760614 2880.486064 1139.610613 Q 2905.336063 1150.460613 2934.036062 1150.460613 Q 2962.736061 1150.460613 2987.936060 1139.610613 Q 3013.136059 1128.760614 3032.036059 1110.210615 Q 3050.936058 1091.660615 3061.786057 1066.460616 Q 3072.636057 1041.260617 3072.636057 1013.260618 Q 3072.636057 984.560619 3061.786057 959.710620 Q 3050.936058 934.860621 3032.036059 916.660622 Q 3013.136059 898.460623 2987.936060 887.610623 Q 2962.736061 876.760624 2934.036062 876.760624 Q 2905.336063 876.760624 2880.486064 887.610623 Q 2855.636065 898.460623 2837.086066 916.660622 Q 2818.536067 934.860621 2807.686067 959.710620 Q 2796.836068 984.560619 2796.836068 1013.260618 Z M 2826.236066 1013.260618 Q 2826.236066 990.860619 2834.636066 971.260620 Q 2843.036066 951.660621 2857.736065 936.960621 Q 2872.436065 922.260622 2892.036064 913.860622 Q 2911.636063 905.460622 2934.036062 905.460622 Q 2956.436061 905.460622 2976.036061 913.860622 Q 2995.636060 922.260622 3010.336059 936.960621 Q 3025.036059 951.660621 3033.786058 971.260620 Q 3042.536058 990.860619 3042.536058 1013.260618 Q 3042.536058 1035.660617 3033.786058 1055.260617 Q 3025.036059 1074.860616 3010.336059 1089.560615 Q 2995.636060 1104.260615 2976.036061 1113.010614 Q 2956.436061 1121.760614 2934.036062 1121.760614 Q 2911.636063 1121.760614 2892.036064 1113.010614 Q 2872.436065 1104.260615 2857.736065 1089.560615 Q 2843.036066 1074.860616 2834.636066 1055.260617 Q 2826.236066 1035.660617 2826.236066 1013.260618 Z M 3298.036048 1118.260614 Q 3293.836049 1112.660615 3289.286049 1107.760615 Q 3284.736049 1102.860615 3281.236049 1097.260615 Q 3272.836049 1107.060615 3257.436050 1113.360614 Q 3242.036051 1119.660614 3226.636051 1119.660614 Q 3218.236051 1119.660614 3209.836052 1117.210614 Q 3201.436052 1114.760614 3194.436052 1109.510615 Q 3187.436053 1104.260615 3183.586053 1096.210615 Q 3179.736053 1088.160615 3179.736053 1076.260616 Q 3180.436053 1060.860616 3190.236053 1052.110617 Q 3200.036052 1043.360617 3214.036052 1037.410617 Q 3228.036051 1031.460618 3244.836050 1026.210618 Q 3261.636050 1020.960618 3275.636049 1012.560618 Q 3289.636049 1004.160619 3299.086048 990.860619 Q 3308.536048 977.560620 3308.536048 955.160621 Q 3308.536048 943.260621 3303.986048 929.610621 Q 3299.436048 915.960622 3289.636049 904.060622 Q 3279.836049 892.160623 3263.736050 884.110623 Q 3247.636050 876.060624 3223.836051 876.060624 Q 3202.136052 876.060624 3178.686053 883.760623 Q 3155.236054 891.460623 3141.236054 908.960622 Q 3146.136054 914.560622 3150.336054 919.460622 Q 3154.536054 924.360622 3160.136054 929.960621 Q 3171.336053 918.060622 3189.536053 911.410622 Q 3207.736052 904.760622 3225.936051 904.760622 Q 3232.236051 904.760622 3241.336051 907.210622 Q 3250.436050 909.660622 3258.836050 915.610622 Q 3267.236050 921.560622 3273.186049 930.660621 Q 3279.136049 939.760621 3279.136049 953.060621 Q 3279.136049 971.260620 3270.036049 981.060620 Q 3260.936050 990.860619 3246.586050 996.810619 Q 3232.236051 1002.760619 3215.436052 1007.310619 Q 3198.636052 1011.860618 3184.286053 1019.560618 Q 3169.936053 1027.260618 3160.136054 1039.860617 Q 3150.336054 1052.460617 3150.336054 1075.560616 Q 3150.336054 1093.760615 3157.336054 1107.410615 Q 3164.336053 1121.060614 3175.536053 1130.160614 Q 3186.736053 1139.260613 3200.036052 1143.810613 Q 3213.336052 1148.360613 3225.936051 1148.360613 Q 3240.636051 1148.360613 3261.986050 1141.710613 Q 3283.336049 1135.060614 3298.036048 1118.260614 Z M 3510.136040 1121.760614 Q 3489.136041 1121.760614 3470.236042 1114.410614 Q 3451.336043 1107.060615 3437.336043 1093.760615 Q 3423.336044 1080.460616 3414.586044 1062.960616 Q 3405.836044 1045.460617 3403.736044 1025.160618 Q 3403.036044 1016.760618 3403.386044 1008.710618 Q 3403.736044 1000.660619 3405.136044 992.960619 Q 3452.036043 1011.860618 3498.936041 1030.410618 Q 3545.836039 1048.960617 3593.436037 1067.860616 Q 3581.536038 1091.660615 3559.136038 1106.710615 Q 3536.736039 1121.760614 3510.136040 1121.760614 Z M 3630.536036 1051.760617 Q 3575.936038 1030.060618 3522.036040 1008.710618 Q 3468.136042 987.360619 3413.536044 965.660620 Q 3425.436044 939.060621 3451.336043 922.260622 Q 3477.236042 905.460622 3510.136040 905.460622 Q 3531.836039 905.460622 3550.736039 913.160622 Q 3569.636038 920.860622 3583.636037 934.860621 Q 3588.536037 929.260622 3592.736037 924.010622 Q 3596.936037 918.760622 3601.836037 913.160622 Q 3583.636037 896.360623 3560.536038 886.560623 Q 3537.436039 876.760624 3510.136040 876.760624 Q 3481.436041 876.760624 3456.586042 887.610623 Q 3431.736043 898.460623 3413.186044 916.660622 Q 3394.636045 934.860621 3383.786045 959.710620 Q 3372.936046 984.560619 3372.936046 1013.260618 Q 3372.936046 1041.260617 3383.786045 1066.460616 Q 3394.636045 1091.660615 3413.186044 1109.860615 Q 3431.736043 1128.060614 3456.586042 1138.910614 Q 3481.436041 1149.760613 3510.136040 1149.760613 Q 3531.136039 1149.760613 3550.036039 1142.410613 Q 3568.936038 1135.060614 3584.686037 1122.110614 Q 3600.436037 1109.160615 3612.336036 1091.310615 Q 3624.236036 1073.460616 3630.536036 1051.760617 Z M 665.336149 529.993970 L 694.736148 529.993970 Q 640.136150 401.193975 586.236152 273.793980 Q 532.336154 146.393985 477.736156 17.593990 Q 423.136158 146.393985 369.236160 273.793980 Q 315.336162 401.193975 260.736164 529.993970 L 290.136163 529.993970 Q 335.636161 422.193974 380.786160 316.143978 Q 425.936158 210.093982 471.436156 102.293986 Q 472.836156 97.393987 474.586156 92.493987 Q 476.336156 87.593987 477.736156 82.693987 Q 479.136156 87.593987 480.886156 92.493987 Q 482.636156 97.393987 484.036156 102.293986 Q 529.536154 210.093982 574.686152 316.143978 Q 619.836151 422.193974 665.336149 529.993970 Z M 890.736140 280.093980 Q 869.736141 280.093980 850.836142 272.743980 Q 831.936142 265.393980 817.936143 252.093981 Q 803.936144 238.793981 795.186144 221.293982 Q 786.436144 203.793983 784.336144 183.493983 Q 783.636144 175.093984 783.986144 167.043984 Q 784.336144 158.993984 785.736144 151.293985 Q 832.636142 170.193984 879.536141 188.743983 Q 926.436139 207.293982 974.036137 226.193982 Q 962.136137 249.993981 939.736138 265.043980 Q 917.336139 280.093980 890.736140 280.093980 Z M 1011.136136 210.093982 Q 956.536138 188.393983 902.636140 167.043984 Q 848.736142 145.693985 794.136144 123.993986 Q 806.036143 97.393987 831.936142 80.593987 Q 857.836141 63.793988 890.736140 63.793988 Q 912.436139 63.793988 931.336139 71.493988 Q 950.236138 79.193987 964.236137 93.193987 Q 969.136137 87.593987 973.336137 82.343987 Q 977.536137 77.093987 982.436137 71.493988 Q 964.236137 54.693988 941.136138 44.893989 Q 918.036139 35.093989 890.736140 35.093989 Q 862.036141 35.093989 837.186142 45.943989 Q 812.336143 56.793988 793.786144 74.993987 Q 775.236145 93.193987 764.386145 118.043986 Q 753.536145 142.893985 753.536145 171.593984 Q 753.536145 199.593983 764.386145 224.793982 Q 775.236145 249.993981 793.786144 268.193980 Q 812.336143 286.393979 837.186142 297.243979 Q 862.036141 308.093979 890.736140 308.093979 Q 911.736139 308.093979 930.636139 300.743979 Q 949.536138 293.393979 965.286137 280.443980 Q 981.036137 267.493980 992.936136 249.643981 Q 1004.836136 231.793981 1011.136136 210.093982 Z M 1088.136133 395.593975 Q 1088.136133 405.393975 1095.136132 412.043975 Q 1102.136132 418.693974 1111.236132 418.693974 Q 1120.336131 418.693974 1127.336131 412.043975 Q 1134.336131 405.393975 1134.336131 395.593975 Q 1134.336131 385.793976 1127.336131 379.143976 Q 1120.336131 372.493976 1111.236132 372.493976 Q 1102.136132 372.493976 1095.136132 379.143976 Q 1088.136133 385.793976 1088.136133 395.593975 Z M 1125.236131 39.993989 L 1096.536132 39.993989 L 1096.536132 302.493979 L 1125.236131 302.493979 Z M 1247.036127 302.493979 L 1273.636126 302.493979 L 1273.636126 277.993980 Q 1273.636126 266.093980 1273.636126 256.293981 Q 1273.636126 246.493981 1274.336126 234.593981 Q 1288.336125 267.493980 1319.136124 287.793979 Q 1349.936123 308.093979 1389.136121 308.093979 Q 1427.636120 308.093979 1450.036119 286.393979 Q 1472.436118 264.693980 1473.836118 229.693982 L 1473.836118 39.993989 L 1444.436119 39.993989 L 1444.436119 221.993982 Q 1443.036119 244.393981 1427.986120 261.193980 Q 1412.936120 277.993980 1383.536121 279.393980 Q 1362.536122 279.393980 1342.936123 272.043980 Q 1323.336124 264.693980 1308.636124 252.093981 Q 1293.936125 239.493981 1285.186125 221.993982 Q 1276.436126 204.493982 1276.436126 183.493983 L 1276.436126 39.993989 L 1247.036127 39.993989 Z M 1718.136109 276.593980 Q 1713.936109 270.993980 1709.386109 266.093980 Q 1704.836109 261.193980 1701.336109 255.593981 Q 1692.936110 265.393980 1677.536110 271.693980 Q 1662.136111 277.993980 1646.736111 277.993980 Q 1638.336112 277.993980 1629.936112 275.543980 Q 1621.536112 273.093980 1614.536113 267.843980 Q 1607.536113 262.593980 1603.686113 254.543981 Q 1599.836113 246.493981 1599.836113 234.593981 Q 1600.536113 219.193982 1610.336113 210.443982 Q 1620.136112 201.693983 1634.136112 195.743983 Q 1648.136111 189.793983 1664.936111 184.543983 Q 1681.736110 179.293983 1695.736110 170.893984 Q 1709.736109 162.493984 1719.186109 149.193985 Q 1728.636108 135.893985 1728.636108 113.493986 Q 1728.636108 101.593986 1724.086108 87.943987 Q 1719.536109 74.293987 1709.736109 62.393988 Q 1699.936109 50.493988 1683.836110 42.443989 Q 1667.736111 34.393989 1643.936111 34.393989 Q 1622.236112 34.393989 1598.786113 42.093989 Q 1575.336114 49.793988 1561.336115 67.293988 Q 1566.236114 72.893988 1570.436114 77.793987 Q 1574.636114 82.693987 1580.236114 88.293987 Q 1591.436113 76.393987 1609.636113 69.743988 Q 1627.836112 63.093988 1646.036111 63.093988 Q 1652.336111 63.093988 1661.436111 65.543988 Q 1670.536110 67.993988 1678.936110 73.943987 Q 1687.336110 79.893987 1693.286110 88.993987 Q 1699.236109 98.093987 1699.236109 111.393986 Q 1699.236109 129.593985 1690.136110 139.393985 Q 1681.036110 149.193985 1666.686111 155.143984 Q 1652.336111 161.093984 1635.536112 165.643984 Q 1618.736112 170.193984 1604.386113 177.893984 Q 1590.036114 185.593983 1580.236114 198.193983 Q 1570.436114 210.793982 1570.436114 233.893981 Q 1570.436114 252.093981 1577.436114 265.743980 Q 1584.436114 279.393980 1595.636113 288.493979 Q 1606.836113 297.593979 1620.136112 302.143979 Q 1633.436112 306.693979 1646.036111 306.693979 Q 1660.736111 306.693979 1682.086110 300.043979 Q 1703.436109 293.393979 1718.136109 276.593980 Z M 2382.436083 93.193987 L 2398.536083 69.393988 Q 2370.536084 53.293988 2338.686085 43.843989 Q 2306.836086 34.393989 2271.136088 34.393989 Q 2219.336090 34.393989 2173.836091 53.993988 Q 2128.336093 73.593987 2094.386094 107.543986 Q 2060.436096 141.493985 2040.836096 186.993983 Q 2021.236097 232.493981 2021.236097 284.293979 Q 2021.236097 336.093977 2040.836096 381.943976 Q 2060.436096 427.793974 2094.386094 461.743973 Q 2128.336093 495.693971 2173.836091 515.643971 Q 2219.336090 535.593970 2271.136088 535.593970 Q 2306.836086 535.593970 2338.686085 526.493970 Q 2370.536084 517.393971 2399.236083 500.593971 Q 2395.036083 494.993971 2391.186083 488.693972 Q 2387.336083 482.393972 2383.136083 476.793972 Q 2358.636084 491.493972 2330.286085 499.543971 Q 2301.936086 507.593971 2271.136088 507.593971 Q 2225.636089 507.593971 2185.386091 489.743972 Q 2145.136092 471.893972 2115.036094 441.443973 Q 2084.936095 410.993975 2067.786095 370.393976 Q 2050.636096 329.793978 2050.636096 283.593979 Q 2050.636096 238.093981 2067.786095 197.843983 Q 2084.936095 157.593984 2115.036094 127.493985 Q 2145.136092 97.393987 2184.686091 79.893987 Q 2224.236089 62.393988 2269.736088 62.393988 Q 2301.236086 62.393988 2329.236085 70.443988 Q 2357.236084 78.493987 2382.436083 93.193987 Z M 2528.036078 39.993989 L 2499.336079 39.993989 L 2499.336079 564.993969 L 2528.036078 564.993969 Z M 2621.836074 395.593975 Q 2621.836074 405.393975 2628.836074 412.043975 Q 2635.836074 418.693974 2644.936073 418.693974 Q 2654.036073 418.693974 2661.036073 412.043975 Q 2668.036072 405.393975 2668.036072 395.593975 Q 2668.036072 385.793976 2661.036073 379.143976 Q 2654.036073 372.493976 2644.936073 372.493976 Q 2635.836074 372.493976 2628.836074 379.143976 Q 2621.836074 385.793976 2621.836074 395.593975 Z M 2658.936073 39.993989 L 2630.236074 39.993989 L 2630.236074 302.493979 L 2658.936073 302.493979 Z M 2780.736068 302.493979 L 2807.336067 302.493979 L 2807.336067 277.993980 Q 2807.336067 266.093980 2807.336067 256.293981 Q 2807.336067 246.493981 2808.036067 234.593981 Q 2822.036067 267.493980 2852.836065 287.793979 Q 2883.636064 308.093979 2922.836063 308.093979 Q 2961.336061 308.093979 2983.736060 286.393979 Q 3006.136060 264.693980 3007.536059 229.693982 L 3007.536059 39.993989 L 2978.136061 39.993989 L 2978.136061 221.993982 Q 2976.736061 244.393981 2961.686061 261.193980 Q 2946.636062 277.993980 2917.236063 279.393980 Q 2896.236064 279.393980 2876.636064 272.043980 Q 2857.036065 264.693980 2842.336066 252.093981 Q 2827.636066 239.493981 2818.886067 221.993982 Q 2810.136067 204.493982 2810.136067 183.493983 L 2810.136067 39.993989 L 2780.736068 39.993989 Z M 3099.236056 395.593975 Q 3099.236056 405.393975 3106.236056 412.043975 Q 3113.236055 418.693974 3122.336055 418.693974 Q 3131.436055 418.693974 3138.436054 412.043975 Q 3145.436054 405.393975 3145.436054 395.593975 Q 3145.436054 385.793976 3138.436054 379.143976 Q 3131.436055 372.493976 3122.336055 372.493976 Q 3113.236055 372.493976 3106.236056 379.143976 Q 3099.236056 385.793976 3099.236056 395.593975 Z M 3136.336055 39.993989 L 3107.636056 39.993989 L 3107.636056 302.493979 L 3136.336055 302.493979 Z M 3417.036044 86.893987 Q 3421.936044 81.293987 3426.486043 76.043987 Q 3431.036043 70.793988 3435.236043 65.193988 Q 3417.036044 51.193988 3395.336045 43.143989 Q 3373.636046 35.093989 3348.436046 35.093989 Q 3319.736048 35.093989 3294.886049 45.943989 Q 3270.036049 56.793988 3251.486050 74.993987 Q 3232.936051 93.193987 3222.086051 118.043986 Q 3211.236052 142.893985 3211.236052 171.593984 Q 3211.236052 199.593983 3222.086051 224.793982 Q 3232.936051 249.993981 3251.486050 268.193980 Q 3270.036049 286.393979 3294.886049 297.243979 Q 3319.736048 308.093979 3348.436046 308.093979 Q 3373.636046 308.093979 3396.036045 300.043979 Q 3418.436044 291.993979 3435.936043 277.993980 Q 3431.036043 272.393980 3426.486043 267.143980 Q 3421.936044 261.893980 3417.036044 256.293981 Q 3403.036044 267.493980 3385.886045 273.793980 Q 3368.736046 280.093980 3348.436046 280.093980 Q 3325.336047 280.093980 3305.736048 271.693980 Q 3286.136049 263.293980 3271.786049 248.593981 Q 3257.436050 233.893981 3249.036050 213.943982 Q 3240.636051 193.993983 3240.636051 171.593984 Q 3240.636051 149.193985 3249.036050 129.593985 Q 3257.436050 109.993986 3271.786049 95.293987 Q 3286.136049 80.593987 3305.736048 72.193988 Q 3325.336047 63.793988 3348.436046 63.793988 Q 3388.336045 63.793988 3417.036044 86.893987 Z" transform="scale(0.120000,0.120000) translate(994.999998,420.999999)" opacity="1.000000"></path>
        <path d="M 499.597465 753.597305 L 504.415989 742.143095 L 509.234560 730.688708 L 514.053181 719.234195 L 518.871853 707.779603 L 523.690572 696.324836 L 528.509339 684.869958 L 533.328161 673.414969 L 538.147021 661.959807 L 542.965942 650.504565 L 547.486335 638.919809 L 551.934488 627.300831 L 556.383659 615.679155 L 560.633025 603.981598 L 564.707153 592.216556 L 568.782414 580.448130 L 572.716362 568.629456 L 576.288218 556.687305 L 579.861358 544.740666 L 583.393954 532.777918 L 586.319405 520.641842 L 589.246162 508.499999 L 592.174201 496.352348 L 594.381801 484.044517 L 596.500994 471.710410 L 598.621307 459.369104 L 599.992152 446.916515 L 601.128034 434.422715 L 602.264567 421.920214 L 602.615271 409.369360 L 602.586428 396.789429 L 602.557405 384.199357 L 601.706442 371.641935 L 600.344143 359.099982 L 598.980444 346.546726 L 596.797881 334.138184 L 593.982701 321.839400 L 591.165102 309.530294 L 587.788817 297.324172 L 583.810477 285.226221 L 579.155315 273.429806 L 574.196132 261.760216 L 568.731219 250.310072 L 562.768521 239.118177 L 556.565467 228.045685 L 549.700517 217.382161 L 542.636145 206.851583 L 535.130409 196.632790 L 527.310631 186.664488 L 519.213765 176.916287 L 510.747875 167.506560 L 502.112799 158.245503 L 493.106306 149.369879 L 483.986642 140.603426 L 474.536186 132.221591 L 464.984609 123.949388 L 455.174766 116.010299 L 445.241261 108.225194 L 435.072233 100.788388 L 424.658026 93.716055 L 414.239053 86.640550 L 403.815316 79.561888 L 393.386807 72.480059 L 380.463829 65.617489 L 366.731520 58.806820 L 353.912178 56.452087 L 344.274938 68.664326 L 334.555291 80.934928 L 327.540351 91.522136 L 320.740712 101.975723 L 313.940364 112.430437 L 307.139287 122.886270 L 301.080172 132.740759 L 295.163097 142.689836 L 289.246348 152.638428 L 283.329864 162.586521 L 277.413707 172.534128 L 271.630678 182.561624 L 265.948746 192.649565 L 260.267114 202.736972 L 254.435295 213.249409 L 248.604218 223.760542 L 243.027407 234.415406 L 237.455962 245.071465 L 231.885243 255.726109 L 226.315313 266.379328 L 220.909782 277.119212 L 215.615909 287.917267 L 210.322847 298.713771 L 205.032940 309.617158 L 199.839924 320.566664 L 194.846391 331.613877 L 189.853947 342.658777 L 184.862590 353.701366 L 179.926772 364.767135 L 175.250209 375.951271 L 170.574698 387.132916 L 165.900327 398.312029 L 161.266214 409.505576 L 156.925771 420.822844 L 152.586422 432.137388 L 148.248165 443.449210 L 143.965314 454.779146 L 139.982073 466.220902 L 135.999875 477.659877 L 132.018638 489.096130 L 128.128314 500.562800 L 124.472530 512.112804 L 120.817809 523.659664 L 117.266298 535.240097 L 113.853427 546.866402 L 110.552355 558.519887 L 107.342575 570.195133 L 104.275876 581.908019 L 101.272526 593.635484 L 98.450105 605.407940 L 95.666947 617.186916 L 93.091162 629.013798 L 90.569025 640.848991 L 88.215221 652.718794 L 85.965235 664.606208 L 83.838443 676.515328 L 81.871672 688.450377 L 79.976902 700.394754 L 78.304328 712.372168 L 76.695915 724.354902 L 75.278906 736.361325 L 73.981612 748.378328 L 72.810665 760.406740 L 71.792966 772.350765 L 70.848591 784.298726 L 70.138007 796.262671 L 69.524650 808.229101 L 69.070250 820.201861 L 68.797119 832.178164 L 68.609676 844.154135 L 68.678154 856.130990 L 68.844337 868.103701 L 69.091689 879.630911 L 69.511848 891.151837 L 70.018089 902.668945 L 70.775780 914.171792 L 71.613067 925.667546 L 72.643753 937.147520 L 73.826770 948.611359 L 75.122074 960.062715 L 75.571526 960.009630 L 74.395389 948.552077 L 73.331735 937.085356 L 72.420637 925.605601 L 71.702932 914.113283 L 71.064998 902.616941 L 70.678299 891.109420 L 70.377733 879.601065 L 70.249744 868.089439 L 70.362735 856.136458 L 70.573233 844.186645 L 71.038967 832.244621 L 71.590007 820.309280 L 72.321486 808.384280 L 73.211122 796.472152 L 74.197208 784.569211 L 75.415769 772.688250 L 76.706821 760.817651 L 78.250963 748.880828 L 79.919969 736.963740 L 81.707049 725.065479 L 83.683524 713.198393 L 85.722568 701.344822 L 87.981449 689.530997 L 90.310587 677.734169 L 92.797443 665.970026 L 95.405401 654.234325 L 98.115004 642.523084 L 100.990496 630.852234 L 103.917620 619.196695 L 107.049407 607.593814 L 110.218443 596.004258 L 113.565706 584.464293 L 116.974192 572.944967 L 120.523157 561.467969 L 124.159485 550.023094 L 127.902954 538.617002 L 131.784539 527.254233 L 135.768511 515.924150 L 139.751430 504.597202 L 143.967852 493.350702 L 148.273512 482.136760 L 152.578154 470.925570 L 156.881787 459.717136 L 161.480413 448.625014 L 166.131798 437.556274 L 170.782090 426.490259 L 175.431290 415.426966 L 180.371862 404.485119 L 185.350518 393.561701 L 190.328084 382.640796 L 195.304549 371.722400 L 200.538325 360.919968 L 205.825527 350.143801 L 211.111640 339.369947 L 216.396666 328.598404 L 221.879533 317.923028 L 227.457358 307.295118 L 232.945736 296.731219 L 238.433335 286.168865 L 244.031512 275.664156 L 249.793250 265.243689 L 255.554225 254.824643 L 261.314431 244.407014 L 267.078480 233.993270 L 273.096772 223.717408 L 279.114321 213.442850 L 284.843632 203.512380 L 290.572638 193.582446 L 296.402848 183.710547 L 302.366593 173.914960 L 308.330042 164.119865 L 314.293194 154.325263 L 320.256051 144.531153 L 326.365972 134.820920 L 332.850881 124.280859 L 339.336506 113.739675 L 345.822842 103.197364 L 352.118520 92.804537 L 356.023028 84.296941 L 360.009947 75.730985 L 366.860110 77.976078 L 374.656384 83.569563 L 383.079618 89.403912 L 393.372852 96.021348 L 403.670857 102.641943 L 413.973626 109.265710 L 424.281163 115.892641 L 434.334720 122.861949 L 444.145651 130.160080 L 453.836993 137.606957 L 463.267031 145.367366 L 472.603555 153.236834 L 481.607868 161.466617 L 490.508375 169.806229 L 499.040446 178.507153 L 507.414033 187.355117 L 515.427130 196.522967 L 523.176334 205.904257 L 530.624727 215.527800 L 537.650067 225.450330 L 544.490948 235.511154 L 550.696857 245.963213 L 556.681128 256.544784 L 562.193511 267.384620 L 567.228537 278.450767 L 571.977118 289.648348 L 576.053327 301.055051 L 579.587145 312.687429 L 582.614698 324.527475 L 585.644692 336.377852 L 588.062896 348.343600 L 589.686295 360.456591 L 591.311096 372.580891 L 592.442540 384.757720 L 592.777565 397.011452 L 593.112772 409.275333 L 593.076806 421.544381 L 592.270816 433.812293 L 591.464175 446.088898 L 590.424223 458.351200 L 588.642316 470.548015 L 586.859284 482.752018 L 584.986077 494.947785 L 582.393718 507.025596 L 579.800054 519.109184 L 577.205091 531.198550 L 574.000000 543.149025 L 570.751797 555.094122 L 567.502311 567.043737 L 563.886405 578.891916 L 560.126207 590.702134 L 556.364876 602.515771 L 552.425306 614.273044 L 548.283004 625.965158 L 544.139701 637.660016 L 539.920177 649.331551 L 535.393213 660.897871 L 530.866206 672.464321 L 526.339144 684.030895 L 521.812033 695.597595 L 517.284872 707.164423 L 512.757668 718.731380 L 508.230409 730.298461 L 503.703100 741.865669 L 499.175749 753.433006 M 475.710800 1193.113248 L 465.294070 1184.326521 L 454.693243 1174.549951 L 444.118435 1163.821875 L 434.106542 1152.299567 L 424.913948 1139.883251 L 416.496848 1126.815677 L 408.963563 1113.145748 L 402.406945 1098.957797 L 396.875128 1084.301087 L 392.350785 1068.736688 L 389.768107 1054.047527 L 387.348991 1039.446113 L 386.090799 1024.787773 L 385.718615 1010.089628 L 385.587310 995.483427 L 386.891160 981.342250 L 388.194019 967.214025 L 390.264042 953.464806 L 392.806675 939.951833 L 395.347654 926.448535 L 398.757982 913.487884 L 402.189954 900.548574 L 405.755654 887.691732 L 409.845241 875.133906 L 413.933070 862.581706 L 418.178171 850.250726 L 422.766631 838.390017 L 427.354322 826.531384 L 431.941251 814.674829 L 436.527423 802.820355 L 441.112827 790.967957 L 445.749016 779.210884 L 450.561105 767.773206 L 455.373249 756.335403 L 460.185437 744.897471 L 464.997673 733.459412 L 469.809965 722.021229 L 474.622300 710.582917 L 479.434684 699.144478 L 484.247117 687.705912 L 489.059606 676.267222 L 493.872138 664.828402 L 498.684719 653.389456 L 503.497356 641.950385 L 508.160294 630.563344 L 512.479827 619.294323 L 516.800367 608.022562 L 521.109194 596.746411 L 525.039503 585.417986 L 528.970938 574.086140 L 532.903507 562.750876 L 536.426994 551.391463 L 539.837139 540.021859 L 543.248561 528.647734 L 546.292805 517.257752 L 549.053851 505.853509 L 551.816195 494.443489 L 554.272612 483.030104 L 556.248940 471.613740 L 558.226387 460.190185 L 559.963014 448.773772 L 561.015628 437.389786 L 562.068889 425.997106 L 562.937844 414.617777 L 562.932177 403.333174 L 562.926337 392.038423 L 562.782682 380.758943 L 561.599264 369.660541 L 560.414452 358.550829 L 559.143196 347.439629 L 556.638801 336.459811 L 554.116174 326.318102 L 551.594409 316.180048 L 548.438120 306.660710 L 545.054455 297.268850 L 541.067079 287.823081 L 536.829233 278.484954 L 532.237825 269.296739 L 527.253173 260.292369 L 521.802001 251.082551 L 515.809236 242.157099 L 509.693668 233.308162 L 503.070721 224.753003 L 496.300083 216.299618 L 489.133318 208.100641 L 481.782257 200.037484 L 474.104172 192.206776 L 466.250121 184.518135 L 457.997374 177.040977 L 449.612035 169.686413 L 440.921735 162.596445 L 432.174589 155.570288 L 423.085343 148.867285 L 414.002477 142.169154 L 404.437461 135.979829 L 394.821658 129.852565 L 385.211501 123.729051 L 375.606992 117.609286 L 366.390272 111.568502 L 366.708013 107.403677 L 367.134822 103.255847 L 368.807458 102.275542 L 372.129212 105.541787 L 375.106895 109.058403 L 368.904703 119.215692 L 362.703354 129.371646 L 356.502846 139.526266 L 350.303179 149.679550 L 344.196486 159.872511 L 338.245097 170.132627 L 332.294700 180.391094 L 326.345295 190.647911 L 320.396883 200.903078 L 314.651235 211.260564 L 308.953585 221.640474 L 303.256958 232.018588 L 297.561354 242.394906 L 291.960573 252.814660 L 286.530913 263.314526 L 281.102304 273.812437 L 275.674745 284.308394 L 270.249366 294.802902 L 265.103687 305.420357 L 259.959080 316.035685 L 254.815546 326.648886 L 249.673091 337.259964 L 244.755193 347.961494 L 239.911241 358.690918 L 235.061929 369.312024 L 230.213402 379.931449 L 225.547239 390.618137 L 221.011417 401.352220 L 216.476390 412.084479 L 211.942160 422.814914 L 207.571479 433.599687 L 203.367573 444.439796 L 199.164468 455.277930 L 195.047859 465.686085 L 191.075698 476.148706 L 187.286177 486.680441 L 183.496958 497.211353 L 179.708040 507.741443 L 176.040273 518.295903 L 172.566443 528.889827 L 169.092926 539.482815 L 169.522995 539.623778 L 173.108189 529.072382 L 176.693069 518.521922 L 180.471309 508.012323 L 184.370126 497.528486 L 188.268642 487.045472 L 192.166856 476.563281 L 196.246958 466.151791 L 200.470749 455.796351 L 204.928489 445.073116 L 209.385441 434.351862 L 214.007579 423.689278 L 218.791667 413.084143 L 223.574960 402.480833 L 228.357456 391.879347 L 233.268721 381.328176 L 238.360804 370.846699 L 243.452097 360.366901 L 248.628273 349.826613 L 253.876264 339.318282 L 259.346809 328.903083 L 264.816281 318.490011 L 270.284686 308.079068 L 275.752013 297.670249 L 281.497277 287.385671 L 287.242621 277.103542 L 292.986916 266.823369 L 298.730160 256.545150 L 304.642806 246.348777 L 310.648418 236.198285 L 316.653013 226.049591 L 322.656579 215.902690 L 328.706246 205.781108 L 334.957304 195.762263 L 341.207370 185.745068 L 347.456443 175.729522 L 353.704525 165.715626 L 360.108784 155.766220 L 366.605977 145.855712 L 373.102322 135.946537 L 379.597825 126.038695 L 386.092487 116.132189 L 380.147350 115.151549 L 373.511347 114.665712 L 368.083183 116.713484 L 363.506904 120.572031 L 358.821555 124.413597 L 367.456627 130.609715 L 376.625676 136.897475 L 385.789076 143.181486 L 394.946830 149.461748 L 404.039162 155.791396 L 412.608365 162.576335 L 421.171193 169.356396 L 429.361572 176.414379 L 437.478335 183.518294 L 445.263760 190.841694 L 452.896619 198.259438 L 460.183569 205.772604 L 467.278573 213.396571 L 474.030937 221.204366 L 480.585261 229.114014 L 486.733105 237.221023 L 492.722497 245.398581 L 498.203268 253.802129 L 503.553941 262.253426 L 508.372482 270.921674 L 512.882057 279.303290 L 517.015352 287.830672 L 520.815096 296.479621 L 524.377805 305.213541 L 527.325220 313.701087 L 530.069776 322.329135 L 532.314323 331.809328 L 534.558008 341.285867 L 537.193225 351.460805 L 538.668268 361.723473 L 540.064441 372.002766 L 541.462014 382.293366 L 541.895278 392.856822 L 542.200871 403.465141 L 542.506639 414.083608 L 541.982515 424.894410 L 541.282313 435.752554 L 540.581452 446.619392 L 539.216465 457.604370 L 537.616031 468.635397 L 536.014485 479.673616 L 533.936993 490.773576 L 531.555116 501.914416 L 529.171947 513.061036 L 526.502469 524.235340 L 523.462576 535.442893 L 520.421406 546.654966 L 517.262627 557.878494 L 513.686240 569.130681 L 510.108725 580.386289 L 506.530091 591.645319 L 502.565105 602.890745 L 498.586192 614.138352 L 494.606272 625.388702 L 490.250588 636.845353 L 485.731607 648.391113 L 481.212577 659.937000 L 476.693504 671.483016 L 472.174375 683.029156 L 467.655197 694.575424 L 463.135970 706.121818 L 458.616700 717.668341 L 454.097374 729.214989 L 449.577999 740.761764 L 445.058581 752.308667 L 440.539108 763.855695 L 436.019585 775.402850 L 431.655489 787.325013 L 427.337562 799.355045 L 423.020392 811.382995 L 418.703984 823.408867 L 414.388339 835.432661 L 410.073463 847.454378 L 406.085454 860.006405 L 402.249606 872.799161 L 398.415521 885.586292 L 395.109183 898.686781 L 391.940137 911.862617 L 388.796256 925.047294 L 386.526777 938.813737 L 384.258951 952.570505 L 382.471812 966.567269 L 381.461936 980.956579 L 380.453038 995.332933 L 380.903273 1010.196055 L 381.596951 1025.126502 L 383.188297 1039.986282 L 385.953015 1054.758416 L 388.879638 1069.592411 L 393.787196 1085.354279 L 399.693710 1100.114630 L 406.620436 1114.354925 L 414.514007 1128.028918 L 423.275672 1141.052892 L 432.792315 1153.380602 L 443.104238 1164.770960 L 453.952242 1175.330838 L 464.792977 1184.904353 L 475.423549 1193.463015 M 634.142390 319.520356 L 631.016441 305.902619 L 627.888059 292.274550 L 623.311180 278.314260 L 618.405930 264.645818 L 613.076115 251.406544 L 607.071695 238.490544 L 600.766116 225.729320 L 593.832305 213.343500 L 586.516855 201.229638 L 578.855674 189.361218 L 570.663383 177.952649 L 562.321059 166.666785 L 553.410596 155.962160 L 544.396776 145.368166 L 534.963497 135.270867 L 525.402976 125.336808 L 515.514618 115.848478 L 505.516449 106.521189 L 495.236222 97.632632 L 484.891636 88.846304 L 474.276547 80.539728 L 463.656079 72.229042 L 452.642306 64.746807 L 441.619547 57.270433 L 430.592024 49.790902 L 419.559734 42.308206 L 404.606176 34.512522 L 379.212875 25.885508 L 353.727500 17.244152 L 332.196768 29.371633 L 312.039887 49.033567 L 297.513308 64.849001 L 290.623676 75.445300 L 283.733335 86.042725 L 276.842268 96.641271 L 269.950505 107.240949 L 263.251602 118.011625 L 256.575267 128.804223 L 249.898110 139.598217 L 243.220115 150.393604 L 236.656364 161.268472 L 230.225178 172.235338 L 223.793129 183.203720 L 217.360217 194.173618 L 210.962981 205.168684 L 204.793250 216.313082 L 198.622632 227.459131 L 192.451128 238.606829 L 186.278719 249.756180 L 180.363645 261.065890 L 174.471939 272.392308 L 168.579307 283.720527 L 162.685789 295.050535 L 157.028907 306.520428 L 151.434750 318.029252 L 145.839653 329.540036 L 140.243658 341.052764 L 134.890447 352.700641 L 129.613692 364.392933 L 124.336033 376.087335 L 119.057450 387.783856 L 114.059083 399.626178 L 109.120772 411.501972 L 104.181561 423.380053 L 99.241428 435.260432 L 94.664919 447.283034 L 90.097458 459.311737 L 85.529143 471.342766 L 81.029076 483.412973 L 76.786316 495.623429 L 72.542692 507.836513 L 68.887460 519.289074 L 65.362192 530.833970 L 61.929659 542.385589 L 58.616891 553.946284 L 55.402767 565.541883 L 52.289881 577.173306 L 49.294321 588.843991 L 46.387015 600.543894 L 43.592781 612.758130 L 40.869201 624.992246 L 38.340885 637.282075 L 35.859217 649.582544 L 33.593142 661.940073 L 31.395847 674.312102 L 29.367576 686.724239 L 27.466907 699.162999 L 25.682137 711.625518 L 24.127513 724.232038 L 22.643890 736.848544 L 21.401811 749.505493 L 20.252133 762.172787 L 19.272127 774.863007 L 18.468089 787.572744 L 17.755126 800.290209 L 17.308016 813.033016 L 16.952554 825.779146 L 16.787231 838.537120 L 16.805172 851.301667 L 16.922015 864.067387 L 17.320734 876.838694 L 17.825546 889.606077 L 18.511346 902.370377 L 19.411960 915.126253 L 20.422565 927.874253 L 21.690629 940.606320 L 23.107260 953.322896 L 24.669205 966.024113 L 26.496421 978.694651 L 28.440873 991.345982 L 30.594209 1003.965880 L 32.953786 1016.549040 L 35.432874 1029.107652 L 38.178238 1041.612838 L 41.073218 1054.081063 L 44.112705 1066.513335 L 47.421633 1078.875854 L 50.849490 1091.201478 L 54.472845 1103.469074 L 58.308906 1115.667551 L 62.261630 1127.824189 L 66.457766 1139.895218 L 70.809182 1151.904679 L 75.285295 1163.863489 L 80.027121 1175.712781 L 84.877265 1187.510932 L 89.901581 1199.230002 L 95.127333 1210.851709 L 100.366330 1222.349329 L 105.829411 1233.733860 L 111.421671 1245.047166 L 117.137759 1256.291946 L 123.071087 1267.412643 L 129.090389 1278.479712 L 135.295458 1289.433850 L 141.636089 1300.299743 L 148.074886 1311.100491 L 154.412660 1321.404997 L 160.806934 1331.669458 L 167.377915 1341.810519 L 174.037499 1351.885681 L 180.815780 1361.873202 L 187.702262 1371.721150 L 194.642475 1381.498930 L 201.678962 1391.127409 L 202.045237 1390.861517 L 195.108110 1381.167180 L 188.268995 1371.326115 L 181.485233 1361.417308 L 174.811633 1351.372007 L 168.258280 1341.241666 L 161.795079 1331.048033 L 155.510067 1320.733831 L 149.283073 1310.382253 L 143.095455 1299.458158 L 137.009583 1288.475675 L 131.062773 1277.411883 L 125.305073 1266.242344 L 119.636743 1255.026250 L 114.188684 1243.693750 L 108.867529 1232.300251 L 103.678551 1220.843141 L 98.716232 1209.280976 L 93.864207 1197.563356 L 89.217083 1185.759399 L 84.747462 1173.887382 L 80.389667 1161.975043 L 76.299971 1149.964815 L 72.337882 1137.915106 L 68.533647 1125.815145 L 64.974475 1113.641249 L 61.534338 1101.436735 L 58.308253 1089.174713 L 55.278898 1076.866050 L 52.370127 1064.531857 L 49.730769 1052.139360 L 47.236806 1039.722164 L 44.893131 1027.279206 L 42.814782 1014.793861 L 40.856452 1002.294936 L 39.103597 989.770052 L 37.558541 977.224253 L 36.130659 964.669851 L 34.965706 952.094701 L 33.945123 939.514359 L 33.071940 926.928578 L 32.453263 914.335860 L 31.943582 901.745097 L 31.645973 889.154676 L 31.526961 876.569836 L 31.512551 863.990478 L 31.775750 851.423599 L 32.136237 838.866749 L 32.676858 826.324093 L 33.404320 813.800308 L 34.221516 801.288267 L 35.299841 788.806656 L 36.467143 776.340631 L 37.806912 763.900132 L 39.312878 751.488318 L 40.908802 739.094088 L 42.741584 726.743785 L 44.643156 714.410622 L 46.670293 702.207582 L 48.810735 690.031508 L 51.075973 677.884791 L 53.506973 665.779434 L 56.004706 653.692576 L 58.714205 641.662172 L 61.468578 629.646709 L 64.414651 617.686497 L 67.429411 605.749315 L 70.401272 594.279304 L 73.460006 582.837688 L 76.634366 571.433479 L 79.908520 560.063674 L 83.279883 548.727384 L 86.765508 537.411014 L 90.339405 526.110347 L 94.046079 514.884692 L 97.929377 502.763410 L 101.813564 490.639482 L 105.958838 478.632934 L 110.174625 466.656132 L 114.391265 454.677005 L 118.618512 442.699295 L 123.206649 430.857437 L 127.795733 419.013266 L 132.385739 407.166796 L 137.037623 395.347201 L 141.971465 383.659816 L 146.906233 371.970312 L 151.841902 360.278698 L 156.856009 348.624872 L 162.115019 337.094716 L 167.374947 325.562609 L 172.635777 314.028555 L 177.961337 302.527724 L 183.525923 291.156343 L 189.091414 279.783167 L 194.657791 268.408201 L 200.249446 257.045718 L 206.101074 245.833473 L 211.953571 234.619579 L 217.806976 223.404032 L 223.661264 212.186837 L 229.745697 201.110423 L 235.867717 190.055285 L 241.990600 178.998630 L 248.114346 167.940460 L 254.372952 156.968508 L 260.747994 146.070825 L 267.123886 135.171752 L 273.500616 124.271287 L 279.902102 113.388883 L 286.502236 102.666112 L 293.103080 91.942213 L 299.704621 81.217181 L 306.306888 70.491030 L 319.028856 55.607373 L 336.378586 37.578241 L 355.189103 26.380652 L 377.914994 34.299608 L 400.732958 42.232906 L 415.035260 49.586281 L 426.106287 56.720107 L 437.182087 63.857108 L 448.262652 70.997273 L 459.343612 78.149391 L 470.027176 86.115170 L 480.716121 94.085066 L 491.139106 102.530405 L 501.507794 111.084802 L 511.601691 120.076489 L 521.596236 129.236187 L 531.272299 138.842219 L 540.832612 148.620395 L 549.984648 158.897366 L 559.045821 169.297283 L 567.551891 180.281972 L 575.921123 191.403936 L 583.773444 202.995307 L 591.294005 214.847208 L 598.446560 226.986997 L 604.985636 239.518478 L 611.235905 252.224943 L 616.824953 265.274460 L 621.998648 278.767832 L 626.853683 292.575572 L 630.276014 306.091062 L 633.700773 319.616876" transform="scale(0.120000,0.120000) translate(305.000000,696.999999)" fill="url(#53018592)" opacity="1.000000"></path>
        <path d="M 499.975287 753.543154 L 504.793811 742.088944 L 509.612383 730.634557 L 514.431003 719.180044 L 519.249676 707.725452 L 524.068394 696.270685 L 528.887161 684.815807 L 533.705983 673.360818 L 538.524844 661.905656 L 543.343764 650.450413 L 547.864157 638.865658 L 552.312310 627.246680 L 556.761482 615.625003 L 561.010847 603.927447 L 565.084975 592.162405 L 569.160236 580.393978 L 573.094184 568.575305 L 576.666040 556.633153 L 580.239181 544.686515 L 583.771777 532.723767 L 586.697227 520.587691 L 589.623984 508.445848 L 592.552023 496.298196 L 594.759623 483.990366 L 596.878817 471.656258 L 598.999129 459.314953 L 600.369974 446.862364 L 601.505856 434.368564 L 602.642389 421.866063 L 602.993093 409.315209 L 602.964251 396.735278 L 602.935228 384.145206 L 602.084264 371.587784 L 600.721966 359.045831 L 599.358266 346.492574 L 597.175703 334.084032 L 594.360523 321.785248 L 591.542925 309.476142 L 588.166639 297.270021 L 584.188299 285.172069 L 579.533137 273.375655 L 574.573954 261.706065 L 569.109042 250.255921 L 563.146343 239.064026 L 556.943290 227.991534 L 550.078340 217.328010 L 543.013967 206.797432 L 535.508231 196.578639 L 527.688453 186.610336 L 519.591587 176.862136 L 511.125698 167.452409 L 502.490621 158.191351 L 493.484129 149.315728 L 484.364465 140.549275 L 474.914009 132.167440 L 465.362432 123.895237 L 455.552589 115.956148 L 445.619083 108.171043 L 435.450055 100.734237 L 425.035849 93.661904 L 414.616875 86.586398 L 404.193138 79.507736 L 393.764630 72.425907 L 380.841651 65.563337 L 367.109342 58.752669 L 354.290000 56.397935 L 344.652760 68.610175 L 334.933114 80.880777 L 327.918173 91.467985 L 321.118535 101.921572 L 314.318186 112.376285 L 307.517109 122.832119 L 301.457995 132.686607 L 295.540919 142.635684 L 289.624170 152.584277 L 283.707686 162.532370 L 277.791530 172.479976 L 272.008500 182.507472 L 266.326568 192.595414 L 260.644937 202.682821 L 254.813117 213.195258 L 248.982040 223.706391 L 243.405229 234.361254 L 237.833784 245.017314 L 232.263066 255.671958 L 226.693135 266.325176 L 221.287605 277.065060 L 215.993731 287.863115 L 210.700669 298.659620 L 205.410762 309.563007 L 200.217746 320.512513 L 195.224213 331.559725 L 190.231769 342.604626 L 185.240413 353.647214 L 180.304594 364.712984 L 175.628031 375.897120 L 170.952520 387.078765 L 166.278149 398.257878 L 161.644036 409.451425 L 157.303594 420.768692 L 152.964244 432.083237 L 148.625987 443.395058 L 144.343137 454.724995 L 140.359895 466.166750 L 136.377697 477.605726 L 132.396460 489.041979 L 128.506137 500.508649 L 124.850353 512.058653 L 121.195631 523.605513 L 117.644120 535.185946 L 114.231250 546.812250 L 110.930178 558.465736 L 107.720397 570.140982 L 104.653698 581.853867 L 101.650348 593.581332 L 98.827928 605.353789 L 96.044769 617.132765 L 93.468985 628.959647 L 90.946848 640.794840 L 88.593043 652.664643 L 86.343057 664.552056 L 84.216266 676.461177 L 82.249494 688.396226 L 80.354724 700.340602 L 78.682150 712.318017 L 77.073737 724.300751 L 75.656729 736.307174 L 74.359434 748.324177 L 73.188488 760.352588 L 72.170789 772.296614 L 71.226413 784.244575 L 70.515830 796.208519 L 69.902473 808.174950 L 69.448073 820.147710 L 69.174941 832.124013 L 68.987498 844.099983 L 69.055976 856.076839 L 69.222159 868.049550 L 69.469511 879.576760 L 69.889671 891.097686 L 70.395912 902.614794 L 71.153602 914.117640 L 71.990889 925.613395 L 73.021575 937.093368 L 74.204593 948.557208 L 75.499896 960.008564 L 75.949348 959.955479 L 74.773211 948.497926 L 73.709558 937.031204 L 72.798459 925.551450 L 72.080754 914.059131 L 71.442821 902.562790 L 71.056121 891.055269 L 70.755555 879.546914 L 70.627566 868.035287 L 70.740557 856.082307 L 70.951055 844.132494 L 71.416790 832.190469 L 71.967829 820.255129 L 72.699308 808.330128 L 73.588945 796.418001 L 74.575030 784.515060 L 75.793591 772.634098 L 77.084643 760.763499 L 78.628785 748.826677 L 80.297792 736.909588 L 82.084871 725.011328 L 84.061346 713.144242 L 86.100390 701.290671 L 88.359272 689.476846 L 90.688409 677.680018 L 93.175265 665.915875 L 95.783223 654.180174 L 98.492826 642.468932 L 101.368318 630.798083 L 104.295442 619.142543 L 107.427229 607.539663 L 110.596265 595.950106 L 113.943529 584.410142 L 117.352014 572.890815 L 120.900980 561.413818 L 124.537307 549.968943 L 128.280777 538.562851 L 132.162362 527.200081 L 136.146333 515.869998 L 140.129252 504.543050 L 144.345675 493.296551 L 148.651334 482.082608 L 152.955977 470.871419 L 157.259609 459.662984 L 161.858235 448.570862 L 166.509620 437.502123 L 171.159912 426.436107 L 175.809112 415.372815 L 180.749684 404.430968 L 185.728340 393.507550 L 190.705906 382.586645 L 195.682371 371.668248 L 200.916147 360.865817 L 206.203349 350.089650 L 211.489463 339.315795 L 216.774488 328.544252 L 222.257355 317.868877 L 227.835180 307.240967 L 233.323558 296.677068 L 238.811157 286.114713 L 244.409334 275.610004 L 250.171073 265.189538 L 255.932048 254.770492 L 261.692254 244.352863 L 267.456302 233.939119 L 273.474595 223.663256 L 279.492144 213.388698 L 285.221455 203.458229 L 290.950460 193.528295 L 296.780670 183.656396 L 302.744415 173.860808 L 308.707864 164.065714 L 314.671017 154.271111 L 320.633873 144.477001 L 326.743794 134.766768 L 333.228703 124.226707 L 339.714328 113.685523 L 346.200664 103.143212 L 352.496342 92.750385 L 356.400851 84.242790 L 360.387769 75.676834 L 367.237932 77.921927 L 375.034207 83.515411 L 383.457440 89.349761 L 393.750674 95.967197 L 404.048680 102.587792 L 414.351449 109.211558 L 424.658985 115.838490 L 434.712543 122.807798 L 444.523473 130.105928 L 454.214815 137.552806 L 463.644854 145.313215 L 472.981378 153.182683 L 481.985690 161.412466 L 490.886198 169.752077 L 499.418268 178.453002 L 507.791855 187.300966 L 515.804952 196.468816 L 523.554156 205.850105 L 531.002549 215.473649 L 538.027890 225.396178 L 544.868770 235.457003 L 551.074680 245.909062 L 557.058950 256.490633 L 562.571333 267.330469 L 567.606359 278.396616 L 572.354940 289.594196 L 576.431149 301.000900 L 579.964967 312.633278 L 582.992520 324.473323 L 586.022514 336.323700 L 588.440718 348.289449 L 590.064118 360.402440 L 591.688918 372.526740 L 592.820362 384.703568 L 593.155388 396.957301 L 593.490595 409.221181 L 593.454628 421.490230 L 592.648639 433.758141 L 591.841997 446.034747 L 590.802045 458.297049 L 589.020139 470.493863 L 587.237106 482.697867 L 585.363900 494.893633 L 582.771540 506.971444 L 580.177876 519.055032 L 577.582914 531.144399 L 574.377823 543.094874 L 571.129620 555.039970 L 567.880133 566.989585 L 564.264227 578.837765 L 560.504029 590.647983 L 556.742698 602.461620 L 552.803128 614.218893 L 548.660827 625.911007 L 544.517524 637.605865 L 540.298000 649.277400 L 535.771036 660.843720 L 531.244029 672.410170 L 526.716966 683.976743 L 522.189855 695.543444 L 517.662694 707.110272 L 513.135490 718.677228 L 508.608231 730.244310 L 504.080922 741.811517 L 499.553571 753.378855 M 476.088623 1193.059096 L 465.671892 1184.272370 L 455.071065 1174.495800 L 444.496257 1163.767724 L 434.484364 1152.245416 L 425.291771 1139.829099 L 416.874670 1126.761525 L 409.341386 1113.091597 L 402.784767 1098.903645 L 397.252950 1084.246936 L 392.728607 1068.682537 L 390.145930 1053.993376 L 387.726813 1039.391962 L 386.468621 1024.733622 L 386.096438 1010.035477 L 385.965132 995.429276 L 387.268982 981.288098 L 388.571841 967.159874 L 390.641864 953.410655 L 393.184497 939.897682 L 395.725476 926.394383 L 399.135805 913.433732 L 402.567776 900.494422 L 406.133476 887.637581 L 410.223063 875.079755 L 414.310893 862.527555 L 418.555993 850.196575 L 423.144453 838.335866 L 427.732144 826.477232 L 432.319073 814.620678 L 436.905246 802.766204 L 441.490649 790.913806 L 446.126839 779.156733 L 450.938927 767.719055 L 455.751072 756.281252 L 460.563259 744.843320 L 465.375495 733.405261 L 470.187787 721.967078 L 475.000122 710.528766 L 479.812506 699.090327 L 484.624940 687.651761 L 489.437429 676.213070 L 494.249961 664.774251 L 499.062542 653.335304 L 503.875178 641.896234 L 508.538116 630.509193 L 512.857649 619.240172 L 517.178190 607.968410 L 521.487017 596.692260 L 525.417325 585.363835 L 529.348761 574.031989 L 533.281329 562.696725 L 536.804816 551.337312 L 540.214961 539.967707 L 543.626383 528.593582 L 546.670628 517.203600 L 549.431673 505.799358 L 552.194017 494.389337 L 554.650434 482.975953 L 556.626762 471.559588 L 558.604209 460.136034 L 560.340836 448.719621 L 561.393451 437.335635 L 562.446711 425.942954 L 563.315666 414.563626 L 563.310000 403.279023 L 563.304159 391.984272 L 563.160504 380.704792 L 561.977086 369.606390 L 560.792274 358.496678 L 559.521018 347.385478 L 557.016623 336.405660 L 554.493997 326.263951 L 551.972231 316.125896 L 548.815942 306.606559 L 545.432278 297.214699 L 541.444901 287.768930 L 537.207055 278.430803 L 532.615647 269.242588 L 527.630996 260.238218 L 522.179823 251.028399 L 516.187058 242.102948 L 510.071491 233.254011 L 503.448543 224.698852 L 496.677906 216.245467 L 489.511141 208.046490 L 482.160080 199.983333 L 474.481994 192.152625 L 466.627944 184.463984 L 458.375196 176.986825 L 449.989857 169.632261 L 441.299557 162.542294 L 432.552411 155.516136 L 423.463166 148.813134 L 414.380299 142.115003 L 404.815284 135.925678 L 395.199480 129.798414 L 385.589323 123.674900 L 375.984814 117.555135 L 366.768094 111.514350 L 367.085836 107.349525 L 367.512644 103.201695 L 369.185280 102.221391 L 372.507035 105.487636 L 375.484717 109.004252 L 369.282526 119.161541 L 363.081176 129.317495 L 356.880668 139.472114 L 350.681002 149.625399 L 344.574308 159.818359 L 338.622919 170.078476 L 332.672522 180.336942 L 326.723118 190.593760 L 320.774705 200.848927 L 315.029057 211.206412 L 309.331407 221.586322 L 303.634780 231.964436 L 297.939177 242.340754 L 292.338395 252.760509 L 286.908735 263.260374 L 281.480126 273.758286 L 276.052567 284.254242 L 270.627189 294.748751 L 265.481509 305.366205 L 260.336903 315.981533 L 255.193368 326.594735 L 250.050913 337.205812 L 245.133016 347.907343 L 240.289063 358.636766 L 235.439752 369.257873 L 230.591225 379.877297 L 225.925062 390.563986 L 221.389239 401.298069 L 216.854213 412.030328 L 212.319982 422.760763 L 207.949301 433.545536 L 203.745396 444.385645 L 199.542290 455.223778 L 195.425681 465.631934 L 191.453520 476.094555 L 187.663999 486.626290 L 183.874780 497.157202 L 180.085862 507.687292 L 176.418096 518.241752 L 172.944265 528.835676 L 169.470749 539.428663 L 169.900817 539.569627 L 173.486011 529.018231 L 177.070891 518.467771 L 180.849132 507.958171 L 184.747949 497.474335 L 188.646464 486.991321 L 192.544678 476.509130 L 196.624780 466.097640 L 200.848571 455.742200 L 205.306311 445.018965 L 209.763264 434.297710 L 214.385402 423.635126 L 219.169490 413.029992 L 223.952782 402.426681 L 228.735278 391.825195 L 233.646544 381.274025 L 238.738627 370.792548 L 243.829919 360.312750 L 249.006095 349.772462 L 254.254087 339.264131 L 259.724631 328.848932 L 265.194103 318.435859 L 270.662508 308.024917 L 276.129835 297.616098 L 281.875099 287.331519 L 287.620444 277.049391 L 293.364738 266.769217 L 299.107982 256.490999 L 305.020628 246.294626 L 311.026240 236.144133 L 317.030835 225.995440 L 323.034402 215.848539 L 329.084068 205.726956 L 335.335126 195.708112 L 341.585192 185.690916 L 347.834266 175.675371 L 354.082348 165.661475 L 360.486606 155.712068 L 366.983799 145.801561 L 373.480144 135.892385 L 379.975648 125.984544 L 386.470310 116.078038 L 380.525172 115.097398 L 373.889169 114.611561 L 368.461005 116.659332 L 363.884727 120.517880 L 359.199378 124.359445 L 367.834450 130.555564 L 377.003498 136.843324 L 386.166899 143.127335 L 395.324652 149.407596 L 404.416984 155.737245 L 412.986187 162.522184 L 421.549015 169.302245 L 429.739395 176.360227 L 437.856157 183.464143 L 445.641582 190.787542 L 453.274441 198.205287 L 460.561392 205.718453 L 467.656395 213.342420 L 474.408759 221.150215 L 480.963083 229.059862 L 487.110928 237.166872 L 493.100319 245.344430 L 498.581090 253.747978 L 503.931764 262.199274 L 508.750304 270.867523 L 513.259879 279.249139 L 517.393175 287.776521 L 521.192919 296.425470 L 524.755628 305.159390 L 527.703043 313.646935 L 530.447599 322.274984 L 532.692145 331.755177 L 534.935831 341.231715 L 537.571047 351.406654 L 539.046090 361.669322 L 540.442263 371.948614 L 541.839837 382.239215 L 542.273100 392.802671 L 542.578694 403.410990 L 542.884462 414.029456 L 542.360337 424.840258 L 541.660135 435.698403 L 540.959274 446.565241 L 539.594288 457.550218 L 537.993854 468.581246 L 536.392307 479.619464 L 534.314815 490.719425 L 531.932938 501.860265 L 529.549769 513.006885 L 526.880291 524.181189 L 523.840398 535.388742 L 520.799228 546.600815 L 517.640450 557.824343 L 514.064062 569.076530 L 510.486548 580.332137 L 506.907913 591.591167 L 502.942927 602.836593 L 498.964015 614.084201 L 494.984095 625.334550 L 490.628410 636.791201 L 486.109429 648.336962 L 481.590399 659.882848 L 477.071326 671.428865 L 472.552197 682.975005 L 468.033019 694.521272 L 463.513792 706.067667 L 458.994522 717.614190 L 454.475196 729.160838 L 449.955821 740.707612 L 445.436404 752.254516 L 440.916930 763.801544 L 436.397408 775.348699 L 432.033311 787.270862 L 427.715385 799.300893 L 423.398214 811.328844 L 419.081807 823.354716 L 414.766161 835.378509 L 410.451285 847.400227 L 406.463277 859.952254 L 402.627428 872.745010 L 398.793343 885.532140 L 395.487005 898.632630 L 392.317959 911.808465 L 389.174078 924.993143 L 386.904599 938.759586 L 384.636773 952.516354 L 382.849635 966.513118 L 381.839758 980.902427 L 380.830860 995.278782 L 381.281095 1010.141904 L 381.974773 1025.072351 L 383.566119 1039.932131 L 386.330838 1054.704265 L 389.257460 1069.538260 L 394.165018 1085.300127 L 400.071532 1100.060479 L 406.998258 1114.300774 L 414.891830 1127.974767 L 423.653494 1140.998741 L 433.170137 1153.326451 L 443.482060 1164.716809 L 454.330064 1175.276686 L 465.170799 1184.850202 L 475.801372 1193.408863 M 634.520212 319.466205 L 631.394264 305.848468 L 628.265881 292.220398 L 623.689002 278.260109 L 618.783752 264.591666 L 613.453938 251.352393 L 607.449518 238.436393 L 601.143938 225.675169 L 594.210127 213.289349 L 586.894678 201.175486 L 579.233496 189.307066 L 571.041206 177.898498 L 562.698881 166.612634 L 553.788418 155.908009 L 544.774598 145.314014 L 535.341319 135.216716 L 525.780799 125.282656 L 515.892441 115.794327 L 505.894271 106.467038 L 495.614045 97.578481 L 485.269458 88.792152 L 474.654369 80.485577 L 464.033901 72.174891 L 453.020128 64.692655 L 441.997369 57.216281 L 430.969846 49.736750 L 419.937556 42.254054 L 404.983998 34.458371 L 379.590697 25.831357 L 354.105322 17.190001 L 332.574590 29.317482 L 312.417710 48.979416 L 297.891131 64.794850 L 291.001499 75.391148 L 284.111157 85.988573 L 277.220090 96.587119 L 270.328328 107.186798 L 263.629424 117.957474 L 256.953089 128.750072 L 250.275932 139.544066 L 243.597937 150.339452 L 237.034186 161.214320 L 230.603000 172.181187 L 224.170952 183.149569 L 217.738039 194.119467 L 211.340804 205.114532 L 205.171072 216.258931 L 199.000455 227.404979 L 192.828950 238.552678 L 186.656541 249.702029 L 180.741468 261.011739 L 174.849761 272.338157 L 168.957129 283.666375 L 163.063612 294.996384 L 157.406730 306.466276 L 151.812573 317.975100 L 146.217475 329.485884 L 140.621480 340.998612 L 135.268270 352.646490 L 129.991514 364.338782 L 124.713856 376.033183 L 119.435273 387.729704 L 114.436906 399.572027 L 109.498594 411.447821 L 104.559384 423.325901 L 99.619251 435.206280 L 95.042741 447.228883 L 90.475280 459.257586 L 85.906966 471.288615 L 81.406898 483.358822 L 77.164138 495.569278 L 72.920514 507.782362 L 69.265282 519.234922 L 65.740014 530.779818 L 62.307481 542.331438 L 58.994713 553.892133 L 55.780590 565.487731 L 52.667703 577.119155 L 49.672143 588.789840 L 46.764838 600.489742 L 43.970604 612.703979 L 41.247024 624.938095 L 38.718708 637.227924 L 36.237039 649.528393 L 33.970964 661.885922 L 31.773669 674.257951 L 29.745399 686.670088 L 27.844729 699.108848 L 26.059959 711.571367 L 24.505335 724.177887 L 23.021712 736.794392 L 21.779634 749.451342 L 20.629955 762.118635 L 19.649950 774.808855 L 18.845911 787.518593 L 18.132948 800.236058 L 17.685838 812.978865 L 17.330376 825.724994 L 17.165053 838.482969 L 17.182994 851.247516 L 17.299838 864.013236 L 17.698556 876.784543 L 18.203369 889.551925 L 18.889168 902.316226 L 19.789782 915.072102 L 20.800388 927.820102 L 22.068452 940.552169 L 23.485082 953.268745 L 25.047027 965.969962 L 26.874243 978.640500 L 28.818695 991.291831 L 30.972031 1003.911728 L 33.331608 1016.494889 L 35.810696 1029.053501 L 38.556060 1041.558686 L 41.451041 1054.026912 L 44.490528 1066.459184 L 47.799456 1078.821703 L 51.227312 1091.147327 L 54.850667 1103.414923 L 58.686728 1115.613400 L 62.639452 1127.770037 L 66.835588 1139.841067 L 71.187005 1151.850527 L 75.663117 1163.809338 L 80.404944 1175.658630 L 85.255087 1187.456781 L 90.279404 1199.175850 L 95.505155 1210.797558 L 100.744153 1222.295178 L 106.207234 1233.679709 L 111.799493 1244.993015 L 117.515582 1256.237794 L 123.448910 1267.358491 L 129.468212 1278.425561 L 135.673281 1289.379699 L 142.013911 1300.245591 L 148.452708 1311.046339 L 154.790483 1321.350846 L 161.184756 1331.615307 L 167.755737 1341.756367 L 174.415321 1351.831530 L 181.193603 1361.819051 L 188.080084 1371.666998 L 195.020297 1381.444778 L 202.056785 1391.073258 L 202.423060 1390.807366 L 195.485933 1381.113029 L 188.646817 1371.271963 L 181.863055 1361.363157 L 175.189455 1351.317856 L 168.636102 1341.187515 L 162.172902 1330.993882 L 155.887889 1320.679679 L 149.660896 1310.328102 L 143.473278 1299.404007 L 137.387406 1288.421524 L 131.440596 1277.357732 L 125.682895 1266.188193 L 120.014565 1254.972099 L 114.566506 1243.639599 L 109.245351 1232.246100 L 104.056373 1220.788990 L 99.094054 1209.226825 L 94.242030 1197.509204 L 89.594905 1185.705248 L 85.125285 1173.833231 L 80.767490 1161.920892 L 76.677793 1149.910664 L 72.715704 1137.860955 L 68.911470 1125.760993 L 65.352298 1113.587098 L 61.912160 1101.382584 L 58.686075 1089.120561 L 55.656720 1076.811898 L 52.747949 1064.477706 L 50.108591 1052.085209 L 47.614629 1039.668012 L 45.270953 1027.225055 L 43.192604 1014.739709 L 41.234274 1002.240784 L 39.481419 989.715900 L 37.936364 977.170102 L 36.508482 964.615700 L 35.343528 952.040550 L 34.322946 939.460208 L 33.449762 926.874427 L 32.831086 914.281709 L 32.321405 901.690946 L 32.023795 889.100524 L 31.904783 876.515684 L 31.890373 863.936326 L 32.153572 851.369447 L 32.514060 838.812598 L 33.054681 826.269941 L 33.782142 813.746157 L 34.599338 801.234115 L 35.677663 788.752505 L 36.844966 776.286480 L 38.184734 763.845981 L 39.690700 751.434167 L 41.286624 739.039937 L 43.119406 726.689633 L 45.020979 714.356471 L 47.048116 702.153431 L 49.188557 689.977356 L 51.453796 677.830639 L 53.884795 665.725282 L 56.382528 653.638425 L 59.092027 641.608020 L 61.846400 629.592558 L 64.792473 617.632345 L 67.807233 605.695164 L 70.779095 594.225153 L 73.837828 582.783537 L 77.012188 571.379328 L 80.286342 560.009522 L 83.657705 548.673233 L 87.143330 537.356862 L 90.717227 526.056196 L 94.423901 514.830541 L 98.307199 502.709259 L 102.191387 490.585330 L 106.336660 478.578783 L 110.552448 466.601981 L 114.769088 454.622853 L 118.996335 442.645143 L 123.584472 430.803285 L 128.173555 418.959114 L 132.763561 407.112645 L 137.415446 395.293049 L 142.349288 383.605665 L 147.284055 371.916160 L 152.219725 360.224546 L 157.233832 348.570721 L 162.492841 337.040565 L 167.752770 325.508458 L 173.013599 313.974404 L 178.339160 302.473572 L 183.903745 291.102192 L 189.469236 279.729016 L 195.035613 268.354050 L 200.627268 256.991567 L 206.478897 245.779321 L 212.331393 234.565428 L 218.184798 223.349881 L 224.039086 212.132685 L 230.123519 201.056272 L 236.245539 190.001133 L 242.368422 178.944479 L 248.492169 167.886309 L 254.750774 156.914357 L 261.125816 146.016674 L 267.501708 135.117601 L 273.878438 124.217136 L 280.279924 113.334732 L 286.880058 102.611960 L 293.480902 91.888062 L 300.082444 81.163030 L 306.684711 70.436879 L 319.406678 55.553222 L 336.756409 37.524090 L 355.566925 26.326501 L 378.292816 34.245457 L 401.110781 42.178754 L 415.413082 49.532129 L 426.484109 56.665956 L 437.559909 63.802956 L 448.640474 70.943122 L 459.721435 78.095240 L 470.404998 86.061019 L 481.093944 94.030915 L 491.516928 102.476254 L 501.885616 111.030651 L 511.979513 120.022337 L 521.974058 129.182036 L 531.650121 138.788068 L 541.210435 148.566244 L 550.362470 158.843214 L 559.423643 169.243131 L 567.929714 180.227821 L 576.298945 191.349784 L 584.151266 202.941155 L 591.671827 214.793057 L 598.824382 226.932846 L 605.363458 239.464327 L 611.613727 252.170791 L 617.202775 265.220308 L 622.376471 278.713681 L 627.231505 292.521421 L 630.653837 306.036910 L 634.078595 319.562725" transform="scale(0.120000,0.120000) translate(568.999999,374.999999)" fill="url(#22778096)" opacity="1.000000"></path>
    </g>
</svg>