<?xml version="1.0" standalone="no"?>
<!DOCTYPE svg PUBLIC "-//W3C//DTD SVG 20010904//EN"
 "http://www.w3.org/TR/2001/REC-SVG-20010904/DTD/svg10.dtd">
<svg version="1.0" xmlns="http://www.w3.org/2000/svg"
 width="512.000000pt" height="512.000000pt" viewBox="0 0 512.000000 512.000000"
 preserveAspectRatio="xMidYMid meet">
<metadata>
Created by potrace 1.11, written by Peter Selinger 2001-2013
</metadata>
<g transform="translate(0.000000,512.000000) scale(0.100000,-0.100000)"
fill="#000000" stroke="none">
<path d="M1714 4918 c-4 -7 -14 -24 -22 -38 -14 -24 -13 -24 3 -5 20 24 37 55
31 55 -3 0 -8 -6 -12 -12z"/>
<path d="M1614 4749 c-158 -278 -265 -603 -310 -939 -20 -151 -23 -486 -5
-640 54 -460 193 -899 441 -1390 195 -385 437 -770 485 -770 7 0 52 19 99 43
47 24 86 39 86 34 0 -6 44 -101 98 -211 195 -398 469 -844 520 -846 75 -2 362
196 497 342 108 117 229 317 250 413 4 17 -9 -6 -27 -51 -90 -216 -260 -412
-495 -570 -85 -57 -193 -114 -217 -114 -53 0 -387 571 -548 934 -58 132 -60
136 -45 136 8 0 28 -35 47 -77 61 -142 218 -450 306 -600 91 -156 231 -373
240 -373 13 0 156 88 234 144 119 85 276 243 343 346 65 100 118 223 143 335
15 61 19 117 18 235 -1 176 -23 306 -89 510 -41 127 -175 473 -182 467 -2 -2
25 -78 61 -168 186 -477 234 -778 166 -1058 -67 -275 -271 -522 -605 -729
l-81 -50 -38 62 c-194 309 -356 600 -462 828 -60 129 -70 168 -46 168 6 0 26
-39 47 -87 93 -216 269 -548 443 -832 29 -46 52 -90 52 -98 0 -7 2 -13 4 -13
6 0 195 128 241 164 252 192 398 420 436 678 16 107 7 295 -21 428 -32 154
-113 388 -250 720 -196 476 -243 638 -243 840 0 166 32 262 135 396 28 38 44
63 35 55 -32 -25 -110 -135 -132 -186 -81 -181 -70 -413 36 -725 17 -52 86
-230 152 -395 210 -527 260 -710 261 -965 1 -182 -24 -299 -92 -435 -73 -146
-236 -323 -407 -442 -50 -34 -102 -72 -117 -83 -24 -18 -28 -19 -28 -5 0 9
-17 42 -38 73 -100 147 -238 390 -359 631 -73 145 -133 271 -133 280 0 10 29
41 65 70 136 110 281 291 338 422 45 102 38 104 -11 4 -55 -113 -117 -200
-206 -293 -59 -62 -187 -172 -200 -172 -3 0 -6 9 -6 20 0 11 4 20 9 20 18 0
210 192 259 258 133 179 189 338 199 560 11 255 -40 481 -202 885 -26 65 -49
116 -51 114 -2 -2 18 -59 45 -128 66 -169 137 -390 162 -507 26 -122 36 -357
20 -462 -17 -108 -71 -258 -127 -351 -73 -121 -307 -361 -335 -344 -5 4 -9 0
-9 -8 0 -8 -7 -18 -16 -21 -37 -14 -3 26 79 94 199 163 326 361 373 582 18 86
20 296 4 390 -39 227 -90 382 -268 813 -189 459 -242 641 -242 832 0 161 43
292 131 397 21 27 39 51 39 54 0 13 -66 -72 -103 -132 -70 -113 -96 -250 -77
-416 l11 -105 -60 -125 c-113 -236 -191 -495 -228 -755 -24 -176 -25 -556 0
-735 36 -260 104 -532 191 -769 25 -69 46 -127 46 -131 0 -3 -18 -16 -40 -29
-22 -12 -44 -30 -49 -39 -8 -15 -11 -14 -20 9 -5 15 -43 80 -84 145 -182 290
-364 637 -467 891 -30 73 -56 131 -58 129 -2 -2 23 -68 55 -147 82 -207 283
-603 418 -827 64 -107 120 -205 126 -218 l9 -25 57 40 c60 43 73 49 73 29 0
-13 -128 -93 -136 -85 -8 8 -145 231 -214 347 -309 524 -510 1018 -605 1485
-35 171 -48 299 -55 525 l-6 235 -2 -200 c-5 -546 138 -1086 457 -1724 129
-257 305 -559 394 -674 l29 -37 31 18 c110 66 125 73 130 58 4 -10 -15 -25
-61 -49 -97 -51 -109 -53 -133 -25 -38 43 -151 221 -241 377 -563 983 -757
1859 -587 2649 39 181 116 393 214 588 50 101 90 184 89 184 -2 0 -28 -45 -60
-101z m889 -1349 c19 -52 78 -203 132 -335 116 -287 195 -520 227 -670 19 -92
23 -138 22 -285 0 -160 -3 -182 -27 -263 -60 -195 -149 -330 -324 -488 l-67
-60 -13 23 -13 23 6 -26 c3 -16 0 -30 -9 -37 -12 -10 -21 6 -56 99 -129 345
-200 695 -221 1079 l-9 175 4 -185 c8 -355 67 -672 195 -1048 32 -93 46 -150
40 -156 -11 -11 -13 -5 -81 194 -88 261 -153 552 -179 800 -15 145 -12 468 5
610 34 273 106 522 227 783 l41 88 33 -113 c18 -62 48 -156 67 -208z m-85
-2191 c-2 -6 -8 -10 -13 -10 -5 0 -11 4 -13 10 -2 6 4 11 13 11 9 0 15 -5 13
-11z m76 -31 c-3 -4 -12 -8 -20 -8 -17 0 -19 27 -1 33 14 5 28 -13 21 -25z
m-54 -22 c0 -8 -4 -17 -9 -20 -10 -7 -23 19 -14 28 11 11 23 6 23 -8z"/>
<path d="M2162 2670 c0 -14 2 -19 5 -12 2 6 2 18 0 25 -3 6 -5 1 -5 -13z"/>
<path d="M2455 3829 c-20 -34 -34 -64 -31 -66 2 -3 15 15 27 39 12 23 29 53
37 66 8 12 12 22 9 22 -3 0 -22 -28 -42 -61z"/>
<path d="M2690 3095 c0 -5 5 -17 10 -25 5 -8 10 -10 10 -5 0 6 -5 17 -10 25
-5 8 -10 11 -10 5z"/>
</g>
</svg>
